<?xml version="1.0"?>
<svg version="1.1" xmlns="http://www.w3.org/2000/svg" width="400px" height="200px" style="border: dashed 2px #aaa"><path fill="#0095ff" d="M110.016,96.444l-0.196,1.624c-0.056,0.476-0.364,0.588-0.868,0.588l-5.068,0l0,15.82c0,0.532-0.112,0.644-0.588,0.644l-2.464,0c-0.504,0-0.588-0.112-0.588-0.616l0-15.848l-5.236,0c-0.476,0-0.644-0.196-0.644-0.672l0-1.652c0-0.42,0.196-0.588,0.616-0.588l14.168,0c0.728,0,0.924,0.224,0.868,0.7z M117.31,97.984c0,1.092-0.952,1.764-1.876,1.764s-1.904-0.616-1.904-1.736s0.924-1.792,1.904-1.792c0.952,0,1.876,0.644,1.876,1.764z M117.142,114.42c0,0.504-0.224,0.7-0.7,0.7l-1.96,0c-0.504,0-0.728-0.196-0.728-0.7l0-12.236c0-0.476,0.28-0.644,0.728-0.644l1.96,0c0.448,0,0.7,0.14,0.7,0.644l0,12.236z M142.776,114.42c0,0.504-0.196,0.7-0.672,0.7l-1.96,0c-0.504,0-0.728-0.196-0.728-0.7l0-7.672c0-1.512-0.392-2.66-2.1-2.66c-1.064,0-2.296,0.56-3.164,1.26c0.056,0.252,0.112,4.004,0.112,4.396l0,4.676c0,0.504-0.196,0.7-0.672,0.7l-1.848,0c-0.504,0-0.728-0.196-0.728-0.7l0-7.672c0-1.484-0.308-2.66-2.016-2.66c-1.092,0-2.212,0.616-3.108,1.4l0,8.932c0,0.504-0.224,0.7-0.7,0.7l-1.96,0c-0.504,0-0.728-0.196-0.728-0.7l0-12.236c0-0.448,0.252-0.644,0.672-0.644l1.82,0c0.42,0,0.672,0.14,0.7,0.532l0.028,0.7c1.148-1.008,2.66-1.596,4.116-1.596c1.708,0,2.912,0.756,3.556,1.82c1.26-1.204,3.08-1.82,4.788-1.82c2.044,0,3.332,1.008,3.92,2.1c0.532,1.036,0.672,2.268,0.672,4.06l0,7.084z M160.766,108.344c0,3.864-1.988,7.112-6.16,7.112c-1.26,0-2.772-0.728-3.556-1.596l-0.112,0.924c-0.028,0.252-0.252,0.336-0.616,0.336l-1.68,0c-0.476,0-0.672-0.224-0.672-0.7l0-18.256c0-0.448,0.112-0.7,0.56-0.756l2.072-0.28c0.112-0.028,0.196-0.028,0.28-0.028c0.28,0,0.476,0.112,0.476,0.56l0,6.888c0.896-0.784,2.24-1.372,3.696-1.372c1.54,0,2.688,0.504,3.584,1.316c1.484,1.316,2.128,3.5,2.128,5.852z M157.266,108.372c0-2.268-0.7-4.34-3.024-4.34c-1.036,0-2.128,0.56-2.884,1.26l0,5.992c0.672,0.756,1.708,1.372,2.744,1.372c2.436,0,3.164-2.1,3.164-4.284z M177.048,108.288c0,0.672-0.224,0.812-0.924,0.812l-8.204,0c0.224,2.156,1.792,3.64,4.004,3.64c1.176,0,2.408-0.28,3.444-0.672c0.112-0.028,0.196-0.084,0.308-0.084c0.196,0,0.336,0.112,0.392,0.336l0.392,1.428c0.028,0.14,0.056,0.252,0.056,0.336c0,0.196-0.112,0.336-0.448,0.476c-1.372,0.616-3.248,0.896-4.704,0.896c-4.396,0-7-2.8-7-7.168c0-4.2,2.772-7.112,6.944-7.112c1.708,0,3.108,0.644,4.088,1.68c1.288,1.344,1.652,3.108,1.652,5.012l0,0.42z M173.716,106.888l0-0.308c-0.056-1.456-0.896-2.8-2.604-2.8c-1.82,0-2.912,1.456-3.136,3.108l5.74,0z M188.934,101.652c0,0.084,0,0.168-0.028,0.252l-0.308,1.988c-0.028,0.252-0.168,0.364-0.392,0.364l-0.112,0c-0.224-0.056-0.504-0.084-0.756-0.084c-0.952,0-1.988,0.504-2.688,1.344l0,8.904c0,0.448-0.196,0.7-0.672,0.7l-2.044,0c-0.448,0-0.672-0.224-0.672-0.7l0-8.736l0-3.444c0-0.56,0.28-0.7,0.7-0.7l1.792,0c0.448,0,0.7,0.14,0.7,0.532l0.028,0.896c0.868-1.092,1.82-1.792,3.388-1.792c0.224,0,0.532,0.056,0.784,0.112c0.196,0.056,0.28,0.14,0.28,0.364z"/><path fill="#e8002e" d="M192.25390625,100.203125q0-0.177734375,0.380859375-0.3046875t0.86328125-0.20947265625t0.93310546875-0.12060546875t0.61572265625-0.0634765625q0-0.3427734375,0.025390625-0.69189453125t0.1396484375-0.6220703125t0.36181640625-0.43798828125t0.69189453125-0.1650390625q0.3681640625,0,0.55859375,0.0888671875t0.40625,0.3681640625q0.05078125,0.15234375,0.05078125,0.2919921875l0,0.42529296875t-0.025390625,0.43798828125q0.4697265625-0.05078125,0.93310546875-0.12060546875t0.93310546875-0.06982421875q0.3427734375,0,0.4697265625,0.0126953125t0.25390625,0.3046875q0.1015625,0.2919921875-0.24755859375,0.4443359375t-0.837890625,0.228515625t-0.97119140625,0.1142578125t-0.583984375,0.0380859375q-0.15234375,2.18359375-0.31103515625,4.3291015625t-0.15869140625,4.3544921875q0,0.990234375,0.0634765625,2.0439453125t0.35546875,1.9931640625q0.076171875,0.2919921875,0.25390625,0.5458984375t0.177734375,0.5458984375q0,0.177734375-0.1396484375,0.279296875t-0.33642578125,0.17138671875t-0.3935546875,0.08251953125t-0.32373046875,0.0126953125q-0.7998046875,0-1.21875-0.5966796875t-0.60302734375-1.42822265625t-0.19677734375-1.70751953125t-0.0126953125-1.421875q0-1.1171875,0.04443359375-2.28515625t0.10791015625-2.310546875t0.177734375-2.234375t0.2666015625-2.03125q-0.4443359375,0.05078125-0.86962890625,0.1142578125t-0.86962890625,0.0634765625q-0.1015625,0-0.27294921875-0.0126953125t-0.32373046875-0.0634765625t-0.26025390625-0.1396484375t-0.10791015625-0.25390625z M201.96163085937,107.9599609375q0-1.16796875,0.27294921875-2.29150390625t0.46337890625-2.24072265625q0.05078125-0.2919921875,0.39990234375-0.36181640625t0.59033203125-0.06982421875q0.4189453125,0,0.6728515625,0.126953125q0.1015625,0.05078125,0.1904296875,0.1142578125t0.0888671875,0.1650390625q0,1.091796875-0.26025390625,2.1328125t-0.26025390625,2.208984375q0,0.3935546875,0.05712890625,0.74267578125t0.10791015625,0.69189453125l0.076171875,0.3681640625q0,0.1015625,0.0126953125,0.177734375t0.0380859375,0.177734375q0,0.228515625-0.32373046875,0.31103515625t-0.56494140625,0.08251953125q-0.3681640625,0-0.67919921875-0.14599609375t-0.48876953125-0.50146484375l-0.177734375-0.3681640625q-0.15234375-0.2919921875-0.15234375-0.65380859375t-0.0634765625-0.66650390625z M202.77413085937,100.3173828125l0-0.2412109375q0-0.5966796875,0.29833984375-1.06640625t0.89501953125-0.4697265625q0.076171875,0,0.14599609375,0.0126953125t0.14599609375,0.0126953125q0.15234375,0.025390625,0.39990234375,0.12060546875t0.24755859375,0.29833984375l0,0.025390625q-0.05078125,0.1015625-0.0634765625,0.20947265625t-0.0634765625,0.18408203125l0.025390625-0.025390625q-0.15234375,0.3935546875-0.24755859375,0.634765625t-0.20947265625,0.38720703125t-0.28564453125,0.20947265625t-0.48876953125,0.0634765625q-0.05078125,0-0.177734375-0.0126953125t-0.27294921875-0.05078125t-0.24755859375-0.1015625t-0.1015625-0.1904296875z M207.51798828125,108.328125l0-0.3681640625q0-0.45703125,0.025390625-0.86328125q0.025390625-0.5712890625,0.025390625-0.939453125q0-0.203125,0.025390625-0.46337890625t0.126953125-0.41259765625q0.126953125-0.126953125,0.29833984375-0.26025390625t0.37451171875-0.13330078125q0.6474609375,0,1.015625,0.14599609375t0.3935546875,0.60302734375l0.05078125,0.3935546875q0.228515625-0.5458984375,0.609375-1.35205078125t0.88232421875-1.5361328125t1.1298828125-1.244140625t1.32666015625-0.51416015625q0.6474609375,0,1.06640625,0.609375t0.66650390625,1.55517578125t0.34912109375,2.107421875t0.1396484375,2.27880859375t0.05078125,2.03759765625t0.0888671875,1.39013671875q0.05078125,0.3935546875,0.17138671875,0.83154296875t0.12060546875,0.80615234375q0,0.1015625-0.14599609375,0.19677734375t-0.31103515625,0.15869140625t-0.33642578125,0.1015625t-0.24755859375,0.0380859375q-0.4951171875,0-0.70458984375-0.74267578125t-0.26025390625-1.85986328125t-0.05078125-2.41845703125t-0.0888671875-2.41845703125t-0.36181640625-1.85986328125t-0.86962890625-0.76806640625q-0.5458984375,0-1.1298828125,0.70458984375t-1.0029296875,1.87255859375q-0.40625,1.16796875-0.55859375,2.6533203125q-0.05078125,0.4697265625-0.05078125,0.939453125q0,1.0283203125,0.2158203125,2.056640625q0.025390625,0.177734375-0.14599609375,0.2666015625t-0.42529296875,0.1396484375t-0.51416015625,0.0634765625t-0.39990234375,0.0126953125q-0.4951171875,0-0.79345703125-0.34912109375t-0.46337890625-0.89501953125t-0.22216796875-1.22509765625t-0.06982421875-1.33935546875z M219.05383789063,108.1123046875q0-0.990234375,0.20947265625-1.79638671875t0.66650390625-1.36474609375t1.19970703125-0.86962890625t1.80908203125-0.31103515625q0.5966796875,0,1.21875,0.15869140625t1.06640625,0.59033203125q0-0.25390625,0.05078125-1.04736328125t0.126953125-1.84716796875t0.15869140625-2.208984375t0.14599609375-2.1455078125t0.1142578125-1.6630859375t0.076171875-0.76171875q0.126953125-0.3681640625,0.4697265625-0.43798828125t0.6474609375-0.06982421875q0.7998046875,0,0.98388671875,0.25390625t0.18408203125,1.015625q0,2.7802734375-0.24755859375,5.53515625t-0.24755859375,5.53515625q0,1.7900390625,0.06982421875,3.59912109375t0.50146484375,3.56103515625l0.1396484375,0.126953125l0.076171875,0.228515625l-0.1904296875,0.2919921875q-0.482421875,0.3046875-1.1171875,0.3046875l-0.05078125,0q-0.6474609375,0-1.193359375-0.3046875q-0.203125-0.126953125-0.33642578125-0.75537109375t-0.20947265625-1.3837890625t-0.1142578125-1.45361328125t-0.0634765625-0.990234375q-0.4443359375,1.015625-1.21240234375,1.74560546875t-1.93603515625,0.72998046875q-0.9140625,0-1.498046875-0.3935546875t-0.90771484375-1.0029296875t-0.45703125-1.36474609375t-0.13330078125-1.50439453125z M220.58997070313,108.1884765625q0,0.2919921875,0.06982421875,0.86328125t0.22216796875,1.142578125t0.42529296875,1.015625t0.71728515625,0.4443359375q0.5966796875-0.2919921875,1.0791015625-0.97119140625t0.83154296875-1.498046875t0.5458984375-1.6376953125t0.19677734375-1.41552734375q0-0.7490234375-0.5458984375-1.244140625t-1.3076171875-0.4951171875q-0.228515625,0-0.46337890625,0.0888671875t-0.43798828125,0.203125q-0.4697265625,0.4443359375-0.72998046875,0.80615234375t-0.3935546875,0.7490234375t-0.17138671875,0.85693359375t-0.0380859375,1.091796875z M231.072109375,108.78515625q0-0.888671875,0.19677734375-2.0947265625t0.66650390625-2.28515625t1.23779296875-1.83447265625t1.93603515625-0.75537109375q1.091796875,0,1.6376953125,0.62841796875t0.5458984375,1.69482421875q0,0.6982421875-0.26025390625,1.52978515625t-0.74267578125,1.57421875t-1.142578125,1.23779296875t-1.47265625,0.4951171875l-0.330078125-0.025390625q0,0.3427734375,0.1015625,0.92041015625t0.29833984375,1.14892578125t0.5078125,1.0029296875t0.75537109375,0.431640625q0.6474609375,0,1.244140625-0.5205078125t1.1298828125-1.1552734375t0.990234375-1.1552734375t0.837890625-0.5205078125q0.203125,0,0.4189453125,0.0634765625t0.2412109375,0.35546875q0,0.177734375-0.09521484375,0.2919921875t-0.17138671875,0.25390625q-0.3935546875,0.6728515625-0.85693359375,1.2822265625t-1.04736328125,1.1044921875t-1.27587890625,0.78076171875t-1.52978515625,0.28564453125q-1.091796875,0-1.8154296875-0.38720703125t-1.16796875-1.041015625t-0.64111328125-1.5107421875t-0.19677734375-1.79638671875z M233.3445703125,107.8203125l0.35546875,0.3173828125q0.25390625,0.228515625,0.5078125,0.1015625t0.45703125-0.46337890625t0.37451171875-0.83154296875t0.3046875-1.015625t0.19677734375-1.015625t0.0634765625-0.8251953125l0-0.431640625t-0.0380859375-0.45703125t-0.13330078125-0.36181640625t-0.29833984375-0.18408203125q-0.0634765625-0.0126953125-0.1142578125-0.0126953125q-0.431640625,0-0.736328125,0.5458984375q-0.330078125,0.609375-0.533203125,1.47900390625t-0.2919921875,1.78369140625t-0.1142578125,1.37109375z M241.68120117187,104.7099609375q0-0.5205078125,0.18408203125-0.8759765625t0.78076171875-0.35546875q0.228515625,0,0.5712890625,0.06982421875t0.3935546875,0.34912109375q0.126953125,0.7490234375,0.1396484375,1.625t0.0888671875,1.650390625q0.2919921875-0.5712890625,0.7490234375-1.2314453125t1.041015625-1.21875t1.26953125-0.9267578125t1.396484375-0.3681640625q0.05078125,0,0.1904296875,0.0380859375t0.26025390625,0.10791015625t0.14599609375,0.15869140625t-0.1396484375,0.1650390625q-0.05078125,0.15234375-0.2158203125,0.18408203125t-0.2919921875,0.03173828125q-0.076171875,0-0.2412109375-0.0634765625q-0.939453125,0.4951171875-1.599609375,1.345703125t-1.0791015625,1.88525390625t-0.609375,2.18359375t-0.1904296875,2.24072265625q0,0.5458984375-0.24755859375,0.66015625t-0.79345703125,0.1142578125q-0.2919921875,0-0.61572265625-0.0634765625t-0.45068359375-0.40625q-0.228515625-0.7236328125-0.37451171875-1.6630859375t-0.22216796875-1.93603515625t-0.10791015625-1.96142578125t-0.03173828125-1.7392578125z"/></svg>
